<?xml version="1.0" encoding="utf-8"?>
<!-- Generator: Adobe Illustrator 28.3.0, SVG Export Plug-In . SVG Version: 6.00 Build 0)  -->
<svg version="1.1" id="Layer_1" xmlns="http://www.w3.org/2000/svg" xmlns:xlink="http://www.w3.org/1999/xlink" x="0px" y="0px"
	 viewBox="0 0 200 200" style="enable-background:new 0 0 200 200;" xml:space="preserve">
<style type="text/css">
	.st0{fill:none;stroke:#C39F7E;stroke-miterlimit:10;}
	.st1{fill:#C29F7E;stroke:#C39F7E;stroke-miterlimit:10;}
	.st2{font-family:'SpartanMB-SemiBold';}
	.st3{font-size:27.7215px;}
</style>
<g>
	<polyline class="st0" points="52.13,119.56 99.75,167.18 148.79,118.14 159.94,106.99 130.4,77.45 	"/>
	<polyline class="st0" points="147.28,80.55 99.65,32.93 50.61,81.97 39.47,93.12 69.01,122.66 	"/>
	<g>
		<g>
			<text transform="matrix(1 0 0 1 60.6072 96.0629)" class="st1 st2 st3">G C</text>
		</g>
		<g>
			<text transform="matrix(1 0 0 1 93.6086 121.1918)" class="st1 st2 st3">L G I</text>
		</g>
	</g>
	<path class="st0" d="M128.19,72.54c0,0.99-0.81,1.8-1.8,1.8s-1.8-0.81-1.8-1.8c0-0.99,0.81-1.8,1.8-1.8S128.19,71.55,128.19,72.54z
		"/>
	<path class="st0" d="M74.63,126.54c0,0.99-0.81,1.8-1.8,1.8s-1.8-0.81-1.8-1.8c0-0.99,0.81-1.8,1.8-1.8S74.63,125.55,74.63,126.54z
		"/>
	<g>
	</g>
	<g>
		<polyline class="st0" points="72.46,147.72 91.44,166.71 116.28,141.87 		"/>
		<polyline class="st0" points="126.95,51.46 107.96,32.47 83.12,57.31 		"/>
	</g>
</g>
</svg>
