<?xml version="1.0" encoding="utf-8"?>
<!-- Generator: Adobe Illustrator 28.3.0, SVG Export Plug-In . SVG Version: 6.00 Build 0)  -->
<svg version="1.1" id="Layer_1" xmlns="http://www.w3.org/2000/svg" xmlns:xlink="http://www.w3.org/1999/xlink" x="0px" y="0px"
	 viewBox="0 0 200 200" style="enable-background:new 0 0 200 200;" xml:space="preserve">
<style type="text/css">
	.st0{fill:#010101;}
	.st1{fill:#CB9B71;}
</style>
<g>
	<g>
		<g>
			<g>
				<path class="st0" d="M179.41,1786.68c-0.34,0-0.68-0.11-0.96-0.34c-0.64-0.53-0.73-1.47-0.2-2.11l38.55-46.52H109.09
					l38.55,46.52c0.53,0.64,0.44,1.58-0.2,2.11c-0.64,0.53-1.58,0.44-2.11-0.2l-40.58-48.98c-0.37-0.45-0.45-1.07-0.2-1.59
					c0.25-0.53,0.78-0.86,1.36-0.86H220c0.58,0,1.11,0.34,1.36,0.86c0.25,0.53,0.17,1.15-0.2,1.59l-40.58,48.98
					C180.27,1786.49,179.85,1786.68,179.41,1786.68z"/>
			</g>
			<g>
				<path class="st0" d="M162.95,1806.55L162.95,1806.55c-0.45,0-0.87-0.2-1.16-0.54l-12.35-14.91c-0.53-0.64-0.44-1.58,0.2-2.11
					c0.64-0.53,1.58-0.44,2.11,0.2l11.2,13.52l10.86-13.11c0.53-0.64,1.47-0.73,2.11-0.2c0.64,0.53,0.73,1.47,0.2,2.11l-12.02,14.5
					C163.82,1806.35,163.39,1806.55,162.95,1806.55z"/>
			</g>
			<g>
				<path class="st0" d="M220,1835.66H105.9c-0.58,0-1.11-0.34-1.36-0.86c-0.25-0.53-0.17-1.15,0.2-1.59l57.05-68.86
					c0.57-0.69,1.74-0.69,2.31,0l57.05,68.86c0.37,0.45,0.45,1.07,0.2,1.59C221.11,1835.32,220.58,1835.66,220,1835.66z
					 M109.09,1832.66h107.71l-53.86-65L109.09,1832.66z"/>
			</g>
			<g>
				<path class="st0" d="M162.95,1761.26c-0.83,0-1.5-0.67-1.5-1.5v-5.22c0-0.83,0.67-1.5,1.5-1.5c0.83,0,1.5,0.67,1.5,1.5v5.22
					C164.45,1760.58,163.78,1761.26,162.95,1761.26z"/>
			</g>
		</g>
	</g>
	<g>
		<path class="st0" d="M162.78,1824.97c-3.12,0-5.67-2.54-5.67-5.67c0-3.12,2.54-5.67,5.67-5.67c3.12,0,5.67,2.54,5.67,5.67
			C168.45,1822.43,165.9,1824.97,162.78,1824.97z M162.78,1816.64c-1.47,0-2.67,1.2-2.67,2.67c0,1.47,1.2,2.67,2.67,2.67
			c1.47,0,2.67-1.2,2.67-2.67C165.45,1817.83,164.25,1816.64,162.78,1816.64z"/>
	</g>
</g>
<g>
	<g>
		<g>
			<g>
				<path class="st1" d="M116.17,101.32c-0.34,0-0.68-0.11-0.96-0.34c-0.64-0.53-0.73-1.47-0.2-2.11l38.55-46.52H45.85l38.55,46.52
					c0.53,0.64,0.44,1.58-0.2,2.11c-0.64,0.53-1.58,0.44-2.11-0.2L41.5,51.8c-0.37-0.45-0.45-1.07-0.2-1.59
					c0.25-0.53,0.78-0.86,1.36-0.86h114.09c0.58,0,1.11,0.34,1.36,0.86c0.25,0.53,0.17,1.15-0.2,1.59l-40.58,48.98
					C117.03,101.14,116.6,101.32,116.17,101.32z"/>
			</g>
			<g>
				<path class="st1" d="M99.7,121.2L99.7,121.2c-0.45,0-0.87-0.2-1.16-0.54l-12.35-14.91c-0.53-0.64-0.44-1.58,0.2-2.11
					c0.64-0.53,1.58-0.44,2.11,0.2l11.2,13.52l10.86-13.11c0.53-0.64,1.47-0.73,2.11-0.2c0.64,0.53,0.73,1.47,0.2,2.11l-12.02,14.5
					C100.57,121,100.15,121.2,99.7,121.2z"/>
			</g>
			<g>
				<path class="st1" d="M156.75,150.31H42.66c-0.58,0-1.11-0.34-1.36-0.86c-0.25-0.53-0.17-1.15,0.2-1.59l57.05-68.86
					c0.57-0.69,1.74-0.69,2.31,0l57.05,68.86c0.37,0.45,0.45,1.07,0.2,1.59C157.86,149.97,157.33,150.31,156.75,150.31z
					 M45.85,147.31h107.71l-53.86-65L45.85,147.31z"/>
			</g>
			<g>
				<path class="st1" d="M99.7,75.9c-0.83,0-1.5-0.67-1.5-1.5v-5.22c0-0.83,0.67-1.5,1.5-1.5c0.83,0,1.5,0.67,1.5,1.5v5.22
					C101.2,75.23,100.53,75.9,99.7,75.9z"/>
			</g>
		</g>
	</g>
	<g>
		<path class="st1" d="M99.54,139.62c-3.12,0-5.67-2.54-5.67-5.66s2.54-5.67,5.67-5.67c3.12,0,5.67,2.54,5.67,5.67
			S102.66,139.62,99.54,139.62z M99.54,131.29c-1.47,0-2.67,1.2-2.67,2.67s1.2,2.66,2.67,2.66c1.47,0,2.67-1.2,2.67-2.66
			S101.01,131.29,99.54,131.29z"/>
	</g>
</g>
</svg>
