<?xml version="1.0" encoding="utf-8"?>
<!-- Generator: Adobe Illustrator 28.1.0, SVG Export Plug-In . SVG Version: 6.00 Build 0)  -->
<svg version="1.1" id="Lag_1" xmlns="http://www.w3.org/2000/svg" xmlns:xlink="http://www.w3.org/1999/xlink" x="0px" y="0px"
	 viewBox="0 0 500 510" style="enable-background:new 0 0 500 510;" xml:space="preserve">
<style type="text/css">
	.st0{fill:none;stroke:#A58C5E;stroke-linejoin:round;stroke-miterlimit:10;}
	.st1{fill:#A58C5E;}
</style>
<g id="XMLID_107_">
	<polygon id="XMLID_56_" class="st0" points="398.79,395.42 73.49,442.71 73.49,67.29 398.79,67.29 	"/>
	<polygon id="XMLID_61_" class="st0" points="426.51,117.15 101.21,70.25 101.21,442.55 426.51,442.55 	"/>
	<g id="XMLID_63_">
		<path class="st1" d="M101.59,395.09c-0.21-0.11,327.35,46.85,324.42,47.62c0,0,0-375.42,0-375.42c3.36,1.14-325.65,0.23-324.8,0.5
			c0,0,0.5-0.5,0.5-0.5s-0.21,40.99-0.21,40.99C101.23,196.97,101.33,306.26,101.59,395.09L101.59,395.09z M100.83,395.74
			c0.31-104.22,0.43-224.46-0.12-328.46c0.26-1.21,325.98-0.77,326.3,0c0,0,0,375.43,0,375.43
			C427.04,444.41,101.4,395.25,100.83,395.74L100.83,395.74z"/>
	</g>
	<polygon id="XMLID_60_" class="st0" points="73.49,117.15 398.79,70.25 398.79,442.55 73.49,442.55 	"/>
	<ellipse id="XMLID_65_" class="st0" cx="250" cy="256.28" rx="174.81" ry="186.35"/>
</g>
</svg>
