<?xml version="1.0" encoding="utf-8"?>
<!-- Generator: Adobe Illustrator 28.3.0, SVG Export Plug-In . SVG Version: 6.00 Build 0)  -->
<svg version="1.1" id="Layer_1" xmlns="http://www.w3.org/2000/svg" xmlns:xlink="http://www.w3.org/1999/xlink" x="0px" y="0px"
	 viewBox="0 0 200 100" style="enable-background:new 0 0 200 100;" xml:space="preserve">
<style type="text/css">
	.st0{fill:none;stroke:#C29F7E;stroke-miterlimit:10;}
	.st1{display:none;fill:none;stroke:#C29F7E;stroke-miterlimit:10;}
</style>
<g>
	<path class="st0" d="M163.3,98.4c-7.1-7.2-14.3-14.4-21.4-21.6"/>
	<path class="st0" d="M166.9,81.5c-22.6-24.7-47.8-47.1-70-71C67.2,40.3,36.1,68.7,7.3,100.3"/>
	<path class="st0" d="M138.6,69.5c0,1.5-1.2,2.7-2.7,2.7s-2.7-1.2-2.7-2.7s1.2-2.7,2.7-2.7S138.6,68,138.6,69.5z"/>
	<path class="st1" d="M59.3,150.1c0,1.5-1.2,2.7-2.7,2.7s-2.7-1.2-2.7-2.7c0-1.5,1.2-2.7,2.7-2.7S59.3,148.7,59.3,150.1z"/>
	<g>
		<polyline class="st1" points="56.1,181.8 84.2,210.1 121,173 		"/>
		<polyline class="st0" points="136.8,38 108.6,9.7 71.9,46.8 		"/>
	</g>
</g>
<line class="st0" x1="166.9" y1="81.5" x2="191.5" y2="106.3"/>
<g>
	<path class="st0" d="M140.6,98.7c-3.9-3.9-7.8-7.8-11.7-11.8"/>
	<path class="st0" d="M146.6,90.2c-17.2-15.5-32-31.9-48.3-49.8h-3c-19.2,20.9-40,40.3-59.4,61"/>
	<path class="st0" d="M126.7,81.7c0,1-0.8,1.9-1.9,1.9c-1,0-1.9-0.9-1.9-1.9c0-1,0.8-1.9,1.9-1.9C125.8,79.8,126.7,80.7,126.7,81.7z
		"/>
	<g>
		<polyline class="st0" points="125.4,59.5 105.5,39.5 79.5,65.7 		"/>
	</g>
</g>
<line class="st0" x1="95.4" y1="40.3" x2="96.9" y2="38.8"/>
<line class="st0" x1="98.3" y1="40.3" x2="96.4" y2="38.4"/>
<line class="st0" x1="104.4" y1="40.5" x2="106.6" y2="40.5"/>
</svg>
